<?xml version="1.0" encoding="utf-8"?>
<!-- Generator: Adobe Illustrator 16.0.5, SVG Export Plug-In . SVG Version: 6.00 Build 0)  -->
<!DOCTYPE svg PUBLIC "-//W3C//DTD SVG 1.1//EN" "http://www.w3.org/Graphics/SVG/1.1/DTD/svg11.dtd">
<svg version="1.1" id="Layer_1" xmlns="http://www.w3.org/2000/svg" xmlns:xlink="http://www.w3.org/1999/xlink" x="0px" y="0px"
	 width="393.332px" height="61.507px" viewBox="0 0 393.332 61.507" enable-background="new 0 0 393.332 61.507"
	 xml:space="preserve">
<g>
	<path d="M38.508,60.009l-4.723,0.045l-8.401-24.521l-8.355,24.521l-4.723-0.045L4.405,24.543H2.543
		c-0.908,0-1.56-0.182-1.953-0.545C0.197,23.635,0,23.166,0,22.591c0-0.545,0.197-0.999,0.59-1.362
		c0.393-0.363,1.044-0.545,1.953-0.545h10.49c0.908,0,1.559,0.182,1.953,0.545c0.393,0.363,0.59,0.833,0.59,1.408
		c0,0.545-0.197,0.999-0.59,1.362c-0.394,0.363-1.044,0.545-1.953,0.545H8.174l6.766,30.243l8.128-24.158h4.541l8.355,24.158
		l6.494-30.243h-4.813c-0.908,0-1.567-0.182-1.975-0.545c-0.409-0.363-0.613-0.833-0.613-1.408c0-0.545,0.197-0.999,0.59-1.362
		c0.393-0.363,1.06-0.545,1.998-0.545h10.444c0.938,0,1.604,0.182,1.998,0.545c0.393,0.363,0.59,0.833,0.59,1.408
		c0,0.545-0.197,0.999-0.59,1.362c-0.394,0.363-1.06,0.545-1.998,0.545h-1.816L38.508,60.009z"/>
	<path d="M101.81,41.255H62.938c0.666,4.934,2.732,8.908,6.199,11.92c3.466,3.012,7.757,4.518,12.874,4.518
		c2.845,0,5.828-0.469,8.946-1.407c3.118-0.938,5.661-2.18,7.629-3.724c0.575-0.454,1.074-0.682,1.499-0.682
		c0.484,0,0.908,0.189,1.271,0.568s0.545,0.824,0.545,1.34c0,0.515-0.243,1.014-0.727,1.498c-1.453,1.514-4.034,2.929-7.743,4.246
		c-3.708,1.316-7.515,1.975-11.42,1.975c-6.539,0-11.996-2.141-16.371-6.425s-6.562-9.468-6.562-15.554
		c0-5.54,2.051-10.292,6.153-14.258c4.102-3.966,9.18-5.949,15.235-5.949c6.236,0,11.368,2.036,15.394,6.107
		C99.887,29.501,101.87,34.776,101.81,41.255z M97.95,37.395c-0.757-4.208-2.747-7.629-5.972-10.263
		c-3.224-2.634-7.061-3.951-11.511-3.951s-8.28,1.302-11.489,3.905c-3.209,2.604-5.207,6.04-5.994,10.308H97.95z"/>
	<path d="M132.416,20.684v9.627c4.965-4.48,8.681-7.364,11.148-8.65c2.467-1.287,4.745-1.93,6.834-1.93
		c2.271,0,4.382,0.765,6.335,2.293c1.952,1.529,2.929,2.687,2.929,3.474c0,0.575-0.189,1.052-0.567,1.431
		c-0.379,0.378-0.856,0.567-1.431,0.567c-0.303,0-0.561-0.053-0.772-0.159c-0.212-0.105-0.606-0.446-1.181-1.021
		c-1.06-1.06-1.983-1.786-2.77-2.18c-0.788-0.393-1.56-0.59-2.316-0.59c-1.665,0-3.671,0.666-6.017,1.998
		c-2.346,1.333-6.41,4.586-12.192,9.763v20.889h16.893c0.938,0,1.604,0.174,1.998,0.522c0.393,0.349,0.59,0.81,0.59,1.385
		c0,0.545-0.197,0.999-0.59,1.362c-0.394,0.363-1.06,0.545-1.998,0.545h-29.925c-0.908,0-1.56-0.174-1.953-0.522
		c-0.394-0.348-0.59-0.794-0.59-1.339c0-0.516,0.189-0.946,0.568-1.295c0.378-0.348,1.037-0.521,1.975-0.521h9.218V24.543h-7.039
		c-0.908,0-1.56-0.182-1.953-0.545c-0.394-0.363-0.59-0.833-0.59-1.408c0-0.545,0.189-0.999,0.568-1.362
		c0.378-0.363,1.037-0.545,1.975-0.545H132.416z"/>
</g>
<g>
	<path d="M220.138,17.906v31.923c1.968,0,3.421,0.439,4.359,1.316c0.938,0.879,1.407,1.998,1.407,3.361
		c0,1.361-0.477,2.475-1.43,3.338c-0.954,0.861-2.551,1.293-4.791,1.293h-8.855v-2.134c-2.664,1.211-5.207,2.119-7.629,2.725
		s-4.723,0.908-6.902,0.908c-3.058,0-5.706-0.644-7.946-1.931c-2.241-1.285-4.012-3.064-5.313-5.335
		c-0.938-1.635-1.408-3.679-1.408-6.13V27.215h-1.589c-2.241,0-3.837-0.431-4.791-1.294c-0.954-0.862-1.431-1.99-1.431-3.383
		c0-1.362,0.477-2.475,1.431-3.338c0.953-0.862,2.55-1.294,4.791-1.294h10.899v27.701c0,1.968,0.477,3.413,1.43,4.336
		c0.954,0.924,2.414,1.385,4.383,1.385c1.877,0,3.896-0.37,6.062-1.111c2.165-0.742,4.837-2.082,8.015-4.02V27.215h-3.359
		c-2.241,0-3.838-0.431-4.791-1.294c-0.954-0.862-1.431-1.99-1.431-3.383c0-1.362,0.477-2.475,1.431-3.338
		c0.953-0.862,2.55-1.294,4.791-1.294H220.138z"/>
	<path d="M246.748,17.906v3.133c1.695-1.453,3.564-2.543,5.607-3.27c2.045-0.727,4.262-1.09,6.653-1.09
		c5.51,0,9.869,1.71,13.078,5.131c2.543,2.725,3.814,6.297,3.814,10.717v17.301c1.968,0,3.421,0.432,4.359,1.295
		c0.938,0.861,1.407,1.99,1.407,3.383c0,1.361-0.477,2.475-1.43,3.338c-0.953,0.861-2.551,1.293-4.791,1.293h-8.4
		c-2.241,0-3.838-0.432-4.791-1.293c-0.953-0.863-1.431-1.991-1.431-3.384c0-1.362,0.47-2.476,1.407-3.337
		c0.938-0.863,2.392-1.295,4.359-1.295V32.255c0-2.028-0.545-3.512-1.635-4.45c-1.423-1.21-3.557-1.816-6.402-1.816
		c-2.15,0-4.034,0.417-5.654,1.249c-1.619,0.833-3.67,2.596-6.152,5.29v17.301c2.391,0,3.936,0.227,4.632,0.682
		c1.483,0.908,2.226,2.24,2.226,3.996c0,1.361-0.477,2.475-1.432,3.338c-0.953,0.861-2.55,1.293-4.79,1.293h-10.581
		c-2.24,0-3.836-0.432-4.791-1.293c-0.953-0.863-1.43-1.991-1.43-3.384c0-1.695,0.727-3.013,2.18-3.95
		c0.727-0.455,2.285-0.682,4.678-0.682V27.215c-1.969,0-3.422-0.438-4.359-1.317c-0.939-0.878-1.408-1.998-1.408-3.36
		s0.477-2.475,1.43-3.338c0.955-0.862,2.551-1.294,4.791-1.294H246.748z"/>
	<path d="M316.589,17.906v31.923h11.171c2.24,0,3.837,0.432,4.791,1.295c0.953,0.861,1.43,1.99,1.43,3.383
		c0,1.361-0.477,2.475-1.43,3.338c-0.954,0.861-2.551,1.293-4.791,1.293h-31.65c-2.241,0-3.838-0.432-4.791-1.293
		c-0.954-0.863-1.431-1.991-1.431-3.384c0-1.362,0.477-2.476,1.431-3.337c0.953-0.863,2.55-1.295,4.791-1.295h11.17V27.215h-7.492
		c-2.21,0-3.799-0.431-4.768-1.294c-0.97-0.862-1.453-1.99-1.453-3.383c0-1.362,0.477-2.475,1.43-3.338
		c0.954-0.862,2.551-1.294,4.791-1.294H316.589z M315.317,0.241v9.854h-11.08V0.241H315.317z"/>
	<path d="M360.137,43.653v15.484h-10.898c-2.24,0-3.836-0.432-4.791-1.293c-0.953-0.863-1.43-1.991-1.43-3.384
		c0-1.362,0.484-2.476,1.453-3.337c0.969-0.863,2.559-1.295,4.768-1.295h1.59V9.55h-1.59c-2.24,0-3.836-0.432-4.791-1.294
		c-0.953-0.863-1.43-1.991-1.43-3.383c0-1.362,0.477-2.475,1.43-3.337c0.955-0.863,2.551-1.294,4.791-1.294h10.898V31.62
		l7.266-5.858c-0.756-1.301-1.135-2.361-1.135-3.179c0-1.392,0.469-2.52,1.408-3.383c0.938-0.862,2.527-1.294,4.768-1.294h10.627
		c2.238,0,3.836,0.432,4.789,1.294c0.955,0.863,1.432,1.991,1.432,3.383c0,1.362-0.477,2.475-1.432,3.337
		c-0.953,0.863-2.551,1.294-4.789,1.294h-2.59l-11.307,9.173l15.213,13.441h2.725c2.24,0,3.836,0.432,4.791,1.295
		c0.953,0.861,1.43,1.99,1.43,3.383c0,1.361-0.477,2.475-1.43,3.338c-0.955,0.861-2.551,1.293-4.791,1.293h-10.717
		c-2.24,0-3.838-0.432-4.791-1.293c-0.953-0.863-1.431-1.991-1.431-3.384c0-1.181,0.515-2.346,1.544-3.497l-9.854-8.719
		L360.137,43.653z"/>
</g>
<g>
	<path d="M111.177,1.32c-0.294,0.134-0.527,0.354-0.7,0.66c-0.174,0.307-0.314,0.64-0.42,1c-0.107,0.36-0.174,0.727-0.2,1.1
		c-0.027,0.374-0.04,0.694-0.04,0.96h0.84v4.12h-2.04V5.04c0-0.533,0.04-1.06,0.12-1.58c0.08-0.52,0.22-1.006,0.42-1.46
		c0.2-0.453,0.466-0.853,0.8-1.2c0.333-0.347,0.74-0.613,1.22-0.8V1.32z"/>
</g>
</svg>
